<mxfile host="app.diagrams.net" modified="2023-06-28T22:30:49.226Z" agent="Mozilla/5.0 (Macintosh; Intel Mac OS X 10_15_7) AppleWebKit/537.36 (KHTML, like Gecko) Chrome/114.0.0.0 Safari/537.36" etag="fCe-8F7LgEZAtpYS16YZ" version="21.5.1" type="device">
  <diagram name="Strona-1" id="KqyXtV0ROiAKt94kHWe_">
    <mxGraphModel dx="1194" dy="616" grid="1" gridSize="10" guides="1" tooltips="1" connect="1" arrows="1" fold="1" page="1" pageScale="1" pageWidth="827" pageHeight="1169" math="0" shadow="0">
      <root>
        <mxCell id="0" />
        <mxCell id="1" parent="0" />
        <mxCell id="0qx7GqG-in9gr9MJ5kOK-1" value="" style="ellipse;whiteSpace=wrap;html=1;" vertex="1" parent="1">
          <mxGeometry x="410" y="60" width="120" height="60" as="geometry" />
        </mxCell>
        <mxCell id="0qx7GqG-in9gr9MJ5kOK-2" value="START" style="text;html=1;strokeColor=none;fillColor=none;align=center;verticalAlign=middle;whiteSpace=wrap;rounded=0;" vertex="1" parent="1">
          <mxGeometry x="440" y="75" width="60" height="30" as="geometry" />
        </mxCell>
        <mxCell id="0qx7GqG-in9gr9MJ5kOK-3" value="" style="endArrow=classic;html=1;rounded=0;exitX=0.5;exitY=1;exitDx=0;exitDy=0;" edge="1" parent="1" source="0qx7GqG-in9gr9MJ5kOK-1">
          <mxGeometry width="50" height="50" relative="1" as="geometry">
            <mxPoint x="430" y="260" as="sourcePoint" />
            <mxPoint x="470" y="150" as="targetPoint" />
          </mxGeometry>
        </mxCell>
        <mxCell id="0qx7GqG-in9gr9MJ5kOK-4" value="" style="rounded=0;whiteSpace=wrap;html=1;" vertex="1" parent="1">
          <mxGeometry x="380" y="150" width="200" height="100" as="geometry" />
        </mxCell>
        <mxCell id="0qx7GqG-in9gr9MJ5kOK-5" value="&lt;font style=&quot;font-size: 14px;&quot;&gt;Inicjalizacja modułu zasilania&lt;/font&gt;" style="text;html=1;strokeColor=none;fillColor=none;align=center;verticalAlign=middle;whiteSpace=wrap;rounded=0;" vertex="1" parent="1">
          <mxGeometry x="380" y="150" width="200" height="20" as="geometry" />
        </mxCell>
        <mxCell id="0qx7GqG-in9gr9MJ5kOK-6" value="Sprawdzenie paneli solarnych, baterii, kontrolera ładowania, przetwornika napięcia, układu zarządzania zasilaniem" style="text;html=1;strokeColor=none;fillColor=none;align=center;verticalAlign=middle;whiteSpace=wrap;rounded=0;" vertex="1" parent="1">
          <mxGeometry x="395" y="160" width="170" height="90" as="geometry" />
        </mxCell>
        <mxCell id="0qx7GqG-in9gr9MJ5kOK-7" value="" style="rounded=0;whiteSpace=wrap;html=1;" vertex="1" parent="1">
          <mxGeometry x="380" y="290" width="200" height="100" as="geometry" />
        </mxCell>
        <mxCell id="0qx7GqG-in9gr9MJ5kOK-8" value="&lt;font style=&quot;font-size: 14px;&quot;&gt;Inicjalizacja modułu pomiarów&lt;/font&gt;" style="text;html=1;strokeColor=none;fillColor=none;align=center;verticalAlign=middle;whiteSpace=wrap;rounded=0;" vertex="1" parent="1">
          <mxGeometry x="380" y="290" width="200" height="20" as="geometry" />
        </mxCell>
        <mxCell id="0qx7GqG-in9gr9MJ5kOK-9" value="Inicjalizacja czujników temperatury, wilgotności, ciśnienia atmosferycznego, opadów, wiatru, promieniowania słonecznego, jakości powietrza&amp;nbsp;" style="text;html=1;strokeColor=none;fillColor=none;align=center;verticalAlign=middle;whiteSpace=wrap;rounded=0;" vertex="1" parent="1">
          <mxGeometry x="385" y="310" width="200" height="80" as="geometry" />
        </mxCell>
        <mxCell id="0qx7GqG-in9gr9MJ5kOK-10" value="" style="endArrow=classic;html=1;rounded=0;exitX=0.5;exitY=1;exitDx=0;exitDy=0;entryX=0.5;entryY=0;entryDx=0;entryDy=0;" edge="1" parent="1" source="0qx7GqG-in9gr9MJ5kOK-6" target="0qx7GqG-in9gr9MJ5kOK-8">
          <mxGeometry width="50" height="50" relative="1" as="geometry">
            <mxPoint x="160" y="410" as="sourcePoint" />
            <mxPoint x="210" y="360" as="targetPoint" />
          </mxGeometry>
        </mxCell>
        <mxCell id="0qx7GqG-in9gr9MJ5kOK-11" value="" style="rounded=0;whiteSpace=wrap;html=1;" vertex="1" parent="1">
          <mxGeometry x="382.5" y="430" width="207.5" height="100" as="geometry" />
        </mxCell>
        <mxCell id="0qx7GqG-in9gr9MJ5kOK-12" value="&lt;font style=&quot;font-size: 14px;&quot;&gt;Inicjalizacja modułu interfejsu użytkownika&lt;/font&gt;" style="text;html=1;strokeColor=none;fillColor=none;align=center;verticalAlign=middle;whiteSpace=wrap;rounded=0;" vertex="1" parent="1">
          <mxGeometry x="382.5" y="440" width="200" height="20" as="geometry" />
        </mxCell>
        <mxCell id="0qx7GqG-in9gr9MJ5kOK-13" value="Inicjalizacja wyświetlacza, klawiatury, przycisków funkcyjnych, głośnika, modułu graficznego, sterownika interfejsu użytkownika, diod LED" style="text;html=1;strokeColor=none;fillColor=none;align=center;verticalAlign=middle;whiteSpace=wrap;rounded=0;" vertex="1" parent="1">
          <mxGeometry x="387.5" y="460" width="202.5" height="70" as="geometry" />
        </mxCell>
        <mxCell id="0qx7GqG-in9gr9MJ5kOK-14" value="" style="endArrow=classic;html=1;rounded=0;entryX=0.5;entryY=0;entryDx=0;entryDy=0;" edge="1" parent="1" source="0qx7GqG-in9gr9MJ5kOK-9" target="0qx7GqG-in9gr9MJ5kOK-11">
          <mxGeometry width="50" height="50" relative="1" as="geometry">
            <mxPoint x="440" y="730" as="sourcePoint" />
            <mxPoint x="490" y="680" as="targetPoint" />
          </mxGeometry>
        </mxCell>
        <mxCell id="0qx7GqG-in9gr9MJ5kOK-15" value="" style="endArrow=classic;html=1;rounded=0;exitX=0.5;exitY=1;exitDx=0;exitDy=0;" edge="1" parent="1" source="0qx7GqG-in9gr9MJ5kOK-13">
          <mxGeometry width="50" height="50" relative="1" as="geometry">
            <mxPoint x="460" y="640" as="sourcePoint" />
            <mxPoint x="490" y="570" as="targetPoint" />
          </mxGeometry>
        </mxCell>
        <mxCell id="0qx7GqG-in9gr9MJ5kOK-17" value="" style="rounded=0;whiteSpace=wrap;html=1;" vertex="1" parent="1">
          <mxGeometry x="382.5" y="570" width="207.5" height="70" as="geometry" />
        </mxCell>
        <mxCell id="0qx7GqG-in9gr9MJ5kOK-18" value="&lt;font style=&quot;font-size: 14px;&quot;&gt;Inicjalizacja modułu jednostki głównej&lt;/font&gt;" style="text;html=1;strokeColor=none;fillColor=none;align=center;verticalAlign=middle;whiteSpace=wrap;rounded=0;" vertex="1" parent="1">
          <mxGeometry x="382.5" y="580" width="200" height="20" as="geometry" />
        </mxCell>
        <mxCell id="0qx7GqG-in9gr9MJ5kOK-19" value="Sprawdzenie procesora, pamięci RAM, ROM, magistrali danych" style="text;html=1;strokeColor=none;fillColor=none;align=center;verticalAlign=middle;whiteSpace=wrap;rounded=0;" vertex="1" parent="1">
          <mxGeometry x="387.5" y="600" width="202.5" height="40" as="geometry" />
        </mxCell>
        <mxCell id="0qx7GqG-in9gr9MJ5kOK-20" value="" style="rounded=0;whiteSpace=wrap;html=1;" vertex="1" parent="1">
          <mxGeometry x="385" y="670" width="207.5" height="70" as="geometry" />
        </mxCell>
        <mxCell id="0qx7GqG-in9gr9MJ5kOK-21" value="&lt;font style=&quot;font-size: 14px;&quot;&gt;Inicjalizacja modułu bazy danych&lt;/font&gt;" style="text;html=1;strokeColor=none;fillColor=none;align=center;verticalAlign=middle;whiteSpace=wrap;rounded=0;" vertex="1" parent="1">
          <mxGeometry x="385" y="680" width="200" height="20" as="geometry" />
        </mxCell>
        <mxCell id="0qx7GqG-in9gr9MJ5kOK-22" value="Sprawdzenie serwera, API, systemu zarządzania bazą danych" style="text;html=1;strokeColor=none;fillColor=none;align=center;verticalAlign=middle;whiteSpace=wrap;rounded=0;" vertex="1" parent="1">
          <mxGeometry x="390" y="700" width="202.5" height="40" as="geometry" />
        </mxCell>
        <mxCell id="0qx7GqG-in9gr9MJ5kOK-23" value="" style="endArrow=classic;html=1;rounded=0;exitX=0.5;exitY=1;exitDx=0;exitDy=0;entryX=0.5;entryY=0;entryDx=0;entryDy=0;" edge="1" parent="1" source="0qx7GqG-in9gr9MJ5kOK-19" target="0qx7GqG-in9gr9MJ5kOK-20">
          <mxGeometry width="50" height="50" relative="1" as="geometry">
            <mxPoint x="320" y="730" as="sourcePoint" />
            <mxPoint x="370" y="680" as="targetPoint" />
          </mxGeometry>
        </mxCell>
        <mxCell id="0qx7GqG-in9gr9MJ5kOK-24" value="" style="rounded=0;whiteSpace=wrap;html=1;" vertex="1" parent="1">
          <mxGeometry x="387.5" y="790" width="200" height="60" as="geometry" />
        </mxCell>
        <mxCell id="0qx7GqG-in9gr9MJ5kOK-25" value="&lt;font style=&quot;font-size: 14px;&quot;&gt;Odczytywanie danych z czujników z modułu pomiarów&amp;nbsp;&lt;/font&gt;" style="text;html=1;strokeColor=none;fillColor=none;align=center;verticalAlign=middle;whiteSpace=wrap;rounded=0;" vertex="1" parent="1">
          <mxGeometry x="417.5" y="790" width="150" height="60" as="geometry" />
        </mxCell>
        <mxCell id="0qx7GqG-in9gr9MJ5kOK-26" value="" style="endArrow=classic;html=1;rounded=0;exitX=0.5;exitY=1;exitDx=0;exitDy=0;" edge="1" parent="1" source="0qx7GqG-in9gr9MJ5kOK-22" target="0qx7GqG-in9gr9MJ5kOK-25">
          <mxGeometry width="50" height="50" relative="1" as="geometry">
            <mxPoint x="220" y="910" as="sourcePoint" />
            <mxPoint x="270" y="860" as="targetPoint" />
          </mxGeometry>
        </mxCell>
        <mxCell id="0qx7GqG-in9gr9MJ5kOK-27" value="" style="endArrow=classic;html=1;rounded=0;" edge="1" parent="1">
          <mxGeometry width="50" height="50" relative="1" as="geometry">
            <mxPoint x="590" y="820" as="sourcePoint" />
            <mxPoint x="580" y="1640" as="targetPoint" />
            <Array as="points">
              <mxPoint x="730" y="820" />
              <mxPoint x="730" y="1640" />
            </Array>
          </mxGeometry>
        </mxCell>
        <mxCell id="0qx7GqG-in9gr9MJ5kOK-28" value="" style="endArrow=classic;html=1;rounded=0;exitX=0.5;exitY=1;exitDx=0;exitDy=0;" edge="1" parent="1" source="0qx7GqG-in9gr9MJ5kOK-25">
          <mxGeometry width="50" height="50" relative="1" as="geometry">
            <mxPoint x="570" y="1010" as="sourcePoint" />
            <mxPoint x="493" y="900" as="targetPoint" />
          </mxGeometry>
        </mxCell>
        <mxCell id="0qx7GqG-in9gr9MJ5kOK-29" value="" style="rounded=0;whiteSpace=wrap;html=1;" vertex="1" parent="1">
          <mxGeometry x="390" y="900" width="200" height="60" as="geometry" />
        </mxCell>
        <mxCell id="0qx7GqG-in9gr9MJ5kOK-30" value="Przetwarzanie danych w jednostce glównej" style="text;html=1;strokeColor=none;fillColor=none;align=center;verticalAlign=middle;whiteSpace=wrap;rounded=0;" vertex="1" parent="1">
          <mxGeometry x="430" y="915" width="130" height="30" as="geometry" />
        </mxCell>
        <mxCell id="0qx7GqG-in9gr9MJ5kOK-31" value="" style="endArrow=classic;html=1;rounded=0;exitX=0.5;exitY=1;exitDx=0;exitDy=0;entryX=0.5;entryY=0;entryDx=0;entryDy=0;" edge="1" parent="1" source="0qx7GqG-in9gr9MJ5kOK-29" target="0qx7GqG-in9gr9MJ5kOK-32">
          <mxGeometry width="50" height="50" relative="1" as="geometry">
            <mxPoint x="530" y="1090" as="sourcePoint" />
            <mxPoint x="490" y="1000" as="targetPoint" />
          </mxGeometry>
        </mxCell>
        <mxCell id="0qx7GqG-in9gr9MJ5kOK-32" value="" style="rounded=0;whiteSpace=wrap;html=1;" vertex="1" parent="1">
          <mxGeometry x="390" y="1010" width="200" height="60" as="geometry" />
        </mxCell>
        <mxCell id="0qx7GqG-in9gr9MJ5kOK-33" value="Zapisywanie danych w bazie danych" style="text;html=1;strokeColor=none;fillColor=none;align=center;verticalAlign=middle;whiteSpace=wrap;rounded=0;" vertex="1" parent="1">
          <mxGeometry x="430" y="1025" width="130" height="30" as="geometry" />
        </mxCell>
        <mxCell id="0qx7GqG-in9gr9MJ5kOK-34" value="" style="endArrow=classic;html=1;rounded=0;exitX=0.5;exitY=1;exitDx=0;exitDy=0;" edge="1" parent="1" source="0qx7GqG-in9gr9MJ5kOK-32">
          <mxGeometry width="50" height="50" relative="1" as="geometry">
            <mxPoint x="490" y="1150" as="sourcePoint" />
            <mxPoint x="490" y="1110" as="targetPoint" />
          </mxGeometry>
        </mxCell>
        <mxCell id="0qx7GqG-in9gr9MJ5kOK-37" value="" style="rounded=0;whiteSpace=wrap;html=1;" vertex="1" parent="1">
          <mxGeometry x="392.5" y="1109" width="200" height="60" as="geometry" />
        </mxCell>
        <mxCell id="0qx7GqG-in9gr9MJ5kOK-38" value="Wyświetlanie danych na wyświetlaczu" style="text;html=1;strokeColor=none;fillColor=none;align=center;verticalAlign=middle;whiteSpace=wrap;rounded=0;" vertex="1" parent="1">
          <mxGeometry x="432.5" y="1124" width="130" height="30" as="geometry" />
        </mxCell>
        <mxCell id="0qx7GqG-in9gr9MJ5kOK-39" value="" style="endArrow=classic;html=1;rounded=0;" edge="1" parent="1">
          <mxGeometry width="50" height="50" relative="1" as="geometry">
            <mxPoint x="490" y="1170" as="sourcePoint" />
            <mxPoint x="490" y="1210" as="targetPoint" />
          </mxGeometry>
        </mxCell>
        <mxCell id="0qx7GqG-in9gr9MJ5kOK-40" value="" style="rhombus;whiteSpace=wrap;html=1;" vertex="1" parent="1">
          <mxGeometry x="415" y="1210" width="150" height="80" as="geometry" />
        </mxCell>
        <mxCell id="0qx7GqG-in9gr9MJ5kOK-41" value="Aktywowany przycisk funkcyjny" style="text;html=1;strokeColor=none;fillColor=none;align=center;verticalAlign=middle;whiteSpace=wrap;rounded=0;" vertex="1" parent="1">
          <mxGeometry x="430" y="1240" width="130" height="30" as="geometry" />
        </mxCell>
        <mxCell id="0qx7GqG-in9gr9MJ5kOK-42" value="TAK" style="text;html=1;strokeColor=none;fillColor=none;align=center;verticalAlign=middle;whiteSpace=wrap;rounded=0;" vertex="1" parent="1">
          <mxGeometry x="720" y="1010" width="60" height="30" as="geometry" />
        </mxCell>
        <mxCell id="0qx7GqG-in9gr9MJ5kOK-43" value="" style="endArrow=classic;html=1;rounded=0;exitX=0;exitY=0.5;exitDx=0;exitDy=0;" edge="1" parent="1" source="0qx7GqG-in9gr9MJ5kOK-40">
          <mxGeometry width="50" height="50" relative="1" as="geometry">
            <mxPoint x="360" y="1430" as="sourcePoint" />
            <mxPoint x="380" y="1380" as="targetPoint" />
            <Array as="points">
              <mxPoint x="350" y="1260" />
            </Array>
          </mxGeometry>
        </mxCell>
        <mxCell id="0qx7GqG-in9gr9MJ5kOK-44" value="TAK" style="text;html=1;strokeColor=none;fillColor=none;align=center;verticalAlign=middle;whiteSpace=wrap;rounded=0;" vertex="1" parent="1">
          <mxGeometry x="320" y="1320" width="60" height="30" as="geometry" />
        </mxCell>
        <mxCell id="0qx7GqG-in9gr9MJ5kOK-45" value="NIE" style="text;html=1;strokeColor=none;fillColor=none;align=center;verticalAlign=middle;whiteSpace=wrap;rounded=0;" vertex="1" parent="1">
          <mxGeometry x="587.5" y="1330" width="60" height="30" as="geometry" />
        </mxCell>
        <mxCell id="0qx7GqG-in9gr9MJ5kOK-46" value="" style="endArrow=classic;html=1;rounded=0;exitX=1;exitY=0.25;exitDx=0;exitDy=0;" edge="1" parent="1" source="0qx7GqG-in9gr9MJ5kOK-41">
          <mxGeometry width="50" height="50" relative="1" as="geometry">
            <mxPoint x="600" y="1450" as="sourcePoint" />
            <mxPoint x="520" y="1500" as="targetPoint" />
            <Array as="points">
              <mxPoint x="640" y="1260" />
            </Array>
          </mxGeometry>
        </mxCell>
        <mxCell id="0qx7GqG-in9gr9MJ5kOK-47" value="" style="rounded=0;whiteSpace=wrap;html=1;" vertex="1" parent="1">
          <mxGeometry x="300" y="1380" width="200" height="60" as="geometry" />
        </mxCell>
        <mxCell id="0qx7GqG-in9gr9MJ5kOK-48" value="Wykonywanie funkcji zdefiniowanych dla przycisku" style="text;html=1;strokeColor=none;fillColor=none;align=center;verticalAlign=middle;whiteSpace=wrap;rounded=0;" vertex="1" parent="1">
          <mxGeometry x="340" y="1395" width="130" height="30" as="geometry" />
        </mxCell>
        <mxCell id="0qx7GqG-in9gr9MJ5kOK-49" value="" style="endArrow=classic;html=1;rounded=0;exitX=0.5;exitY=1;exitDx=0;exitDy=0;" edge="1" parent="1" source="0qx7GqG-in9gr9MJ5kOK-47">
          <mxGeometry width="50" height="50" relative="1" as="geometry">
            <mxPoint x="440" y="1540" as="sourcePoint" />
            <mxPoint x="490" y="1500" as="targetPoint" />
          </mxGeometry>
        </mxCell>
        <mxCell id="0qx7GqG-in9gr9MJ5kOK-51" value="" style="rounded=0;whiteSpace=wrap;html=1;" vertex="1" parent="1">
          <mxGeometry x="397.5" y="1500" width="200" height="60" as="geometry" />
        </mxCell>
        <mxCell id="0qx7GqG-in9gr9MJ5kOK-52" value="Sprawdzenie zasobów energetycznych i zarządzanie zasilaniem" style="text;html=1;strokeColor=none;fillColor=none;align=center;verticalAlign=middle;whiteSpace=wrap;rounded=0;" vertex="1" parent="1">
          <mxGeometry x="437.5" y="1515" width="130" height="30" as="geometry" />
        </mxCell>
        <mxCell id="0qx7GqG-in9gr9MJ5kOK-53" value="" style="endArrow=classic;html=1;rounded=0;exitX=0.5;exitY=1;exitDx=0;exitDy=0;" edge="1" parent="1" source="0qx7GqG-in9gr9MJ5kOK-51">
          <mxGeometry width="50" height="50" relative="1" as="geometry">
            <mxPoint x="510" y="1670" as="sourcePoint" />
            <mxPoint x="500" y="1600" as="targetPoint" />
          </mxGeometry>
        </mxCell>
        <mxCell id="0qx7GqG-in9gr9MJ5kOK-54" value="" style="rhombus;whiteSpace=wrap;html=1;" vertex="1" parent="1">
          <mxGeometry x="426.25" y="1600" width="152.5" height="80" as="geometry" />
        </mxCell>
        <mxCell id="0qx7GqG-in9gr9MJ5kOK-55" value="Zasoby energetyczne wystarczające" style="text;html=1;strokeColor=none;fillColor=none;align=center;verticalAlign=middle;whiteSpace=wrap;rounded=0;" vertex="1" parent="1">
          <mxGeometry x="427.5" y="1630" width="150" height="30" as="geometry" />
        </mxCell>
        <mxCell id="0qx7GqG-in9gr9MJ5kOK-56" value="" style="endArrow=classic;html=1;rounded=0;exitX=0;exitY=0.25;exitDx=0;exitDy=0;" edge="1" parent="1" source="0qx7GqG-in9gr9MJ5kOK-55">
          <mxGeometry width="50" height="50" relative="1" as="geometry">
            <mxPoint x="340" y="1810" as="sourcePoint" />
            <mxPoint x="370" y="1638" as="targetPoint" />
          </mxGeometry>
        </mxCell>
        <mxCell id="0qx7GqG-in9gr9MJ5kOK-57" value="NIE" style="text;html=1;strokeColor=none;fillColor=none;align=center;verticalAlign=middle;whiteSpace=wrap;rounded=0;" vertex="1" parent="1">
          <mxGeometry x="372.5" y="1610" width="60" height="30" as="geometry" />
        </mxCell>
        <mxCell id="0qx7GqG-in9gr9MJ5kOK-58" value="" style="rounded=0;whiteSpace=wrap;html=1;" vertex="1" parent="1">
          <mxGeometry x="240" y="1610" width="130" height="60" as="geometry" />
        </mxCell>
        <mxCell id="0qx7GqG-in9gr9MJ5kOK-59" value="Wysyłanie informacji o braku zasobów energetycznych" style="text;html=1;strokeColor=none;fillColor=none;align=center;verticalAlign=middle;whiteSpace=wrap;rounded=0;" vertex="1" parent="1">
          <mxGeometry x="242.5" y="1625" width="130" height="30" as="geometry" />
        </mxCell>
        <mxCell id="0qx7GqG-in9gr9MJ5kOK-60" value="" style="endArrow=classic;html=1;rounded=0;exitX=0.5;exitY=1;exitDx=0;exitDy=0;" edge="1" parent="1" source="0qx7GqG-in9gr9MJ5kOK-58">
          <mxGeometry width="50" height="50" relative="1" as="geometry">
            <mxPoint x="440" y="1810" as="sourcePoint" />
            <mxPoint x="305" y="1710" as="targetPoint" />
          </mxGeometry>
        </mxCell>
        <mxCell id="0qx7GqG-in9gr9MJ5kOK-61" value="" style="rounded=0;whiteSpace=wrap;html=1;" vertex="1" parent="1">
          <mxGeometry x="240" y="1710" width="120" height="60" as="geometry" />
        </mxCell>
        <mxCell id="0qx7GqG-in9gr9MJ5kOK-62" value="Wyłączenie modułów&amp;nbsp;" style="text;html=1;strokeColor=none;fillColor=none;align=center;verticalAlign=middle;whiteSpace=wrap;rounded=0;" vertex="1" parent="1">
          <mxGeometry x="270" y="1725" width="60" height="30" as="geometry" />
        </mxCell>
        <mxCell id="0qx7GqG-in9gr9MJ5kOK-63" value="" style="endArrow=classic;html=1;rounded=0;exitX=0.5;exitY=1;exitDx=0;exitDy=0;" edge="1" parent="1" source="0qx7GqG-in9gr9MJ5kOK-61">
          <mxGeometry width="50" height="50" relative="1" as="geometry">
            <mxPoint x="270" y="1860" as="sourcePoint" />
            <mxPoint x="300" y="1800" as="targetPoint" />
          </mxGeometry>
        </mxCell>
        <mxCell id="0qx7GqG-in9gr9MJ5kOK-64" value="" style="ellipse;whiteSpace=wrap;html=1;" vertex="1" parent="1">
          <mxGeometry x="243" y="1800" width="117" height="40" as="geometry" />
        </mxCell>
        <mxCell id="0qx7GqG-in9gr9MJ5kOK-65" value="STOP" style="text;html=1;strokeColor=none;fillColor=none;align=center;verticalAlign=middle;whiteSpace=wrap;rounded=0;" vertex="1" parent="1">
          <mxGeometry x="270" y="1805" width="60" height="30" as="geometry" />
        </mxCell>
      </root>
    </mxGraphModel>
  </diagram>
</mxfile>
